# xmcd CD database file
#
# Track frame offsets:
#	150
#	16144
#	29395
#	42286
#	53913
#	63646
#	77013
#	85365
#	106842
#	124277
#	145457
#	160876
#	185558
#	197815
#	209767
#	223732
#	241063
#	253611
#	262833
#	273893
#
# Disc length: 3820 seconds
#
# Revision: 1
# Processed by: cddbd v1.5.2PL0 Copyright (c) Steve Scherf et al.
# Submitted via: CDex 1.70beta2
#
DISCID=250eea14
DTITLE=Various Artist - The Royal Blues
DYEAR=2009
DGENRE=Blues
TTITLE0=Just A Sittin' And A Rockin' - Ella Fitzgerald
TTITLE1=He Sends Me - Nellie Lutcher
TTITLE2=Babe's Blues - Betty Carter
TTITLE3=Love Me Or Leave Me - Billie Holiday
TTITLE4=Exactly Like You - Carmen McRae
TTITLE5=Fool That I Am - Etta James
TTITLE6=You'd Be So Nice To Come Home To - Ruth Brown
TTITLE7=If I Had You - Dinah Washington
TTITLE8=Love For Sale - Shirley Horn
TTITLE9=You're Not The Kind - Sarah Vaughan
TTITLE10=After The Lights Go Down Low - Freda Payne
TTITLE11=Let Up - Abbey Lincoln
TTITLE12=I Never Loved A Man (The Way I Love You) - Aretha Franklin
TTITLE13=To Love Somebody - Nina Simone
TTITLE14=Respect - Rotary Connection feat. Minnie Riperton
TTITLE15=A Change Is Gonna Come - Lizz Wright
TTITLE16=I Better Get Ta Steppin' - Ike and Tina Turner
TTITLE17=They Call Me Big Mama - Big Mama Thornton
TTITLE18=Trouble In Mind - Sister Rosetta Tharpe
TTITLE19=Don't Turn The Card - Memphis Minnie
EXTD=YEAR: 2009
EXTT0=
EXTT1=
EXTT2=
EXTT3=
EXTT4=
EXTT5=
EXTT6=
EXTT7=
EXTT8=
EXTT9=
EXTT10=
EXTT11=
EXTT12=
EXTT13=
EXTT14=
EXTT15=
EXTT16=
EXTT17=
EXTT18=
EXTT19=
PLAYORDER=
